<svg xmlns="http://www.w3.org/2000/svg" xml:space="preserve" width="1276.995px" height="1606.148px" x="0px" y="0px" viewBox="0 0 1276.995 1606.148"><path fill="#001941" d="M751.933 425.428c311.914 441.767 226.881 889.845 226.881 889.845S936.067 809.156 561.927 395.21l111.933-62.393C514.02 114.969 293.66 0 293.66 0s351.28 37.378 563.685 366.667zm-287.924 33.065 49.697 235.254 140.058 48.158 17.762-22.849s-73.677-139.21-207.517-260.563M45.761 1210.394h70.714c0 8.321-2.083 35.357-4.166 43.678H0V962.893h45.761zm89.43-247.501h45.761v291.179h-45.761zm216.298 83.192c-12.476 3.747-31.202 5.411-45.751 6.249v-45.761c-4.166-2.083-12.487-4.155-20.808-4.155-8.31 0-16.632 2.073-20.798 4.155v203.822c4.166 2.083 12.487 4.166 20.798 4.166 8.321 0 16.643-2.083 20.808-4.166v-81.108c-6.238-8.321-16.642-16.642-29.119-20.798v-24.964h74.87v124.786c0 35.786-34.938 49.927-66.559 49.927-31.61 0-66.549-14.141-66.549-49.927v-199.656c0-35.776 34.939-49.917 66.549-49.917 31.621 0 66.559 14.141 66.559 49.917zm178.859 207.988h-46.17l-5.401-39.104c-8.74-7.903-24.545-15.386-39.942-19.134l4.166-24.953h29.527l-17.877-128.952h-2.502l-29.527 212.144h-46.18l43.678-291.179c7.484-1.245 27.036-2.083 34.53-2.083 7.065 0 27.036.837 34.101 2.083zM0 1310.814h66.559c31.61 0 66.549 14.141 66.549 49.917v108.155c0 35.765-34.939 49.917-66.549 49.917H54.083v-24.964c12.477-4.155 27.036-12.477 33.274-20.798v-114.393c-4.166-2.083-12.477-4.155-20.798-4.155H45.761v247.501H0zm301.573 45.751v199.667c0 35.776-34.939 49.917-66.549 49.917-31.621 0-66.559-14.141-66.559-49.917v-199.667c0-35.765 34.938-49.906 66.559-49.906 31.61-.001 66.549 14.14 66.549 49.906m-45.751-2.073c-4.166-2.083-12.477-4.155-20.798-4.155s-16.643 2.072-20.798 4.155v203.822c4.155 2.083 12.476 4.155 20.798 4.155s16.632-2.072 20.798-4.155zm220.454 247.501h-47.834c-10.404-45.761-22.88-74.88-35.357-95.678v-24.953c12.477-4.155 27.036-12.477 33.275-20.798v-101.916c-4.155-2.083-12.477-4.155-20.798-4.155h-20.798v247.501h-45.761v-291.179h66.559c31.61 0 66.549 14.141 66.549 49.917v95.668c0 21.635-12.885 35.357-29.946 42.852 16.642 33.691 24.544 59.9 34.111 102.741m151.833-291.179v43.678h-45.761v247.501h-45.761v-247.501h-45.751v-43.678zm110.227 0h45.751v245.418c0 35.776-34.939 49.917-66.549 49.917-31.621 0-66.559-14.141-66.559-49.917v-245.418h45.761v247.501c4.155 2.083 12.476 4.155 20.798 4.155s16.632-2.072 20.798-4.155zm216.289 83.191c-12.477 3.747-31.192 5.411-45.751 6.238v-45.751c-4.155-2.083-12.477-4.155-20.798-4.155s-16.643 2.072-20.798 4.155v203.822c4.155 2.083 12.476 4.155 20.798 4.155s16.642-2.072 20.798-4.155v-81.108c-6.238-8.321-16.643-16.642-29.119-20.808v-24.953h74.87v124.786c0 35.776-34.939 49.917-66.549 49.917s-66.559-14.141-66.559-49.917v-199.667c0-35.765 34.949-49.906 66.559-49.906s66.549 14.141 66.549 49.906zm178.869 207.988h-46.17l-5.411-39.104c-8.729-7.902-24.545-15.386-39.931-19.134l4.166-24.953h29.527l-17.888-128.952h-2.491l-29.538 212.143h-46.17l43.668-291.179c7.494-1.246 27.047-2.083 34.531-2.083 7.076 0 27.036.837 34.112 2.083zm72.787-43.679h70.714c0 8.321-2.083 35.357-4.155 43.678h-112.32v-291.179h45.761z"/></svg>