<svg xmlns="http://www.w3.org/2000/svg" version="1.1" viewBox="170.88 2.12 743.12 733.68">
<path d="M 841.71 2.12 C 843.01 3.17 844.22 4.41 845.40 5.60 C 855.33 15.73 865.53 25.60 875.40 35.79 C 863.42 46.71 851.55 57.79 839.83 68.98 C 828.90 58.06 817.94 47.17 807.08 36.18 C 817.79 25.52 828.47 14.84 839.11 4.12 C 839.92 3.36 840.71 2.64 841.71 2.12 Z" fill="#ff0000"></path>
<path d="M 246.80 2.45 C 258.14 13.67 269.34 25.05 280.69 36.27 C 269.16 47.12 257.41 57.76 246.04 68.78 C 245.37 68.80 244.70 68.82 244.04 68.83 C 233.75 57.91 222.89 47.52 212.33 36.86 C 223.78 25.36 235.19 13.78 246.80 2.45 Z" fill="#00db82"></path>
<path d="M 245.95 70.15 C 256.76 80.85 268.21 90.93 279.22 101.44 C 260.19 101.37 241.14 101.40 222.11 101.59 C 219.07 101.68 216.04 101.76 213.01 101.81 C 223.20 91.14 233.98 81.05 244.10 70.32 C 244.72 70.24 245.33 70.18 245.95 70.15 Z" fill="#00db82"></path>
<path d="M 839.90 68.99 C 851.02 79.77 862.62 90.08 873.83 100.78 C 858.18 100.29 842.63 100.93 827.00 100.81 C 820.72 100.87 814.62 100.41 808.40 101.55 L 807.96 101.01 C 818.47 90.22 829.22 79.62 839.90 68.99 Z" fill="#ff0000"></path>
<path d="M 440.00 80.37 C 487.52 80.47 535.05 80.34 582.57 80.44 C 568.83 93.40 555.76 107.05 542.04 120.05 C 529.21 132.75 516.45 145.51 503.43 158.02 C 501.96 157.84 500.48 157.70 499.00 157.65 C 451.72 157.63 404.17 157.67 356.91 157.63 C 381.87 132.36 407.14 107.38 432.17 82.17 C 434.39 79.56 436.95 80.57 440.00 80.37 Z" fill="#00db82"></path>
<path d="M 582.57 80.44 C 607.72 80.35 632.88 80.45 658.03 80.38 C 660.23 80.32 661.16 80.76 662.73 82.25 C 671.18 90.82 679.57 99.42 687.91 108.10 C 697.18 117.17 705.78 126.87 715.06 135.94 C 723.01 144.32 731.24 152.43 739.16 160.83 C 713.16 160.89 687.17 160.84 661.17 160.85 C 661.16 135.25 661.19 109.59 661.16 83.99 C 661.23 83.06 660.95 82.17 660.31 81.32 C 659.51 81.82 658.77 82.42 658.10 83.13 C 633.13 108.27 607.97 133.23 583.00 158.37 C 560.67 158.40 538.33 158.37 516.00 158.39 C 511.73 158.37 507.67 158.59 503.43 158.02 C 516.45 145.51 529.21 132.75 542.04 120.05 C 555.76 107.05 568.83 93.40 582.57 80.44 Z" fill="#ff0000"></path>
<path d="M 827.00 100.81 C 842.63 100.93 858.18 100.29 873.83 100.78 C 863.10 112.14 852.20 123.37 841.63 134.88 C 830.50 123.83 819.30 112.81 808.40 101.55 C 814.62 100.41 820.72 100.87 827.00 100.81 Z" fill="#c70f14"></path>
<path d="M 213.01 101.81 C 216.04 101.76 219.07 101.68 222.11 101.59 C 238.41 101.55 254.72 101.64 271.02 101.47 C 273.67 101.41 276.04 101.65 278.62 102.30 C 275.72 104.86 273.05 107.63 270.48 110.51 C 262.57 118.81 254.66 127.13 246.85 135.53 C 235.51 124.35 224.38 112.95 213.01 101.81 Z" fill="#00b063"></path>
<path d="M 210.85 135.78 C 227.89 135.95 244.95 136.45 262.00 136.52 C 263.88 136.61 265.99 136.45 267.79 137.05 C 268.97 137.89 270.00 138.95 271.02 139.98 C 284.30 153.49 297.91 166.69 311.11 180.28 C 282.88 180.50 254.32 180.13 226.13 180.46 C 225.35 182.31 225.79 184.98 225.68 187.00 C 225.75 227.00 225.68 267.00 225.71 307.00 C 225.75 312.47 225.53 317.80 225.94 323.26 C 225.68 333.84 225.82 344.42 225.79 355.00 C 225.85 361.54 225.57 368.00 226.06 374.54 C 230.25 371.52 233.44 367.69 237.12 364.12 C 242.15 359.19 246.94 354.06 252.16 349.34 C 256.30 353.70 260.63 357.87 264.85 362.14 C 338.17 435.49 411.49 508.84 484.80 582.19 C 488.09 585.47 491.33 588.78 494.69 591.98 C 494.69 603.66 494.40 615.33 494.30 627.00 C 494.35 630.36 494.26 633.70 493.85 637.04 C 484.20 627.04 473.81 617.83 464.09 607.91 C 456.15 600.19 448.15 592.53 440.32 584.69 C 429.10 574.24 418.47 563.21 407.30 552.71 C 397.35 542.65 386.90 533.12 376.98 523.02 C 368.43 514.89 360.01 506.66 351.60 498.38 C 341.99 489.33 332.89 479.77 323.16 470.83 C 314.47 462.19 305.66 453.68 296.87 445.13 C 289.15 437.17 280.81 429.87 273.05 421.94 C 266.09 414.90 258.76 408.23 251.79 401.20 C 244.84 394.15 237.43 387.58 230.50 380.50 C 223.57 373.43 216.19 366.82 209.22 359.79 C 202.09 352.57 194.56 345.79 187.45 338.55 C 182.09 332.95 176.16 327.94 170.88 322.28 C 187.64 305.67 204.25 288.90 220.97 272.24 C 204.91 272.20 188.86 272.25 172.80 272.22 C 172.75 239.41 172.88 206.59 172.73 173.78 C 177.41 168.78 182.38 164.06 187.18 159.18 C 195.11 151.44 202.69 143.27 210.85 135.78 Z" fill="#00db82"></path>
<path d="M 819.39 138.50 C 820.90 138.24 822.48 138.29 824.00 138.27 C 839.49 138.39 854.98 138.21 870.47 138.37 C 883.26 151.30 896.15 164.13 909.03 176.97 C 910.74 178.91 913.09 180.05 912.78 182.97 C 912.77 214.27 912.78 245.57 912.78 276.86 C 895.88 276.93 878.97 276.74 862.07 276.96 C 879.29 294.39 896.70 311.64 914.00 328.99 C 808.19 434.88 702.32 540.72 596.52 646.61 C 579.14 664.10 561.63 681.45 544.22 698.92 C 544.28 692.92 544.16 686.98 543.83 681.00 C 543.67 667.84 543.40 654.67 543.13 641.51 C 559.16 625.61 574.69 609.26 590.64 593.29 C 611.97 571.39 633.59 549.80 655.11 528.10 C 669.52 513.18 684.29 498.62 698.90 483.90 C 712.98 469.61 726.84 455.24 741.08 441.09 C 755.48 426.77 769.59 412.27 783.87 397.86 C 799.25 382.18 815.05 366.89 830.12 350.91 C 840.18 360.88 850.09 371.03 860.37 380.75 C 860.70 378.18 860.93 375.60 860.89 373.00 C 860.70 355.44 861.01 337.88 860.72 320.32 C 860.84 274.24 860.73 228.15 860.78 182.07 C 832.43 182.02 804.09 182.12 775.75 182.02 C 788.66 168.84 801.84 155.92 814.81 142.80 C 816.28 141.34 817.70 139.70 819.39 138.50 Z" fill="#ff0000"></path>
<path d="M 311.39 180.43 C 312.92 180.30 314.47 180.30 316.00 180.30 C 352.16 180.39 388.26 180.52 424.42 180.51 C 422.99 182.05 421.62 183.65 420.17 185.17 C 385.50 219.83 350.85 254.52 316.18 289.18 C 314.64 290.75 313.19 292.39 311.65 293.95 L 311.26 293.98 C 311.40 256.26 311.13 218.09 311.39 180.43 Z" fill="#00b063"></path>
<path d="M 424.42 180.51 C 466.30 180.75 508.14 180.49 550.03 180.84 C 512.37 218.60 474.61 256.26 436.95 294.02 C 395.18 294.03 353.41 294.16 311.65 293.95 C 313.19 292.39 314.64 290.75 316.18 289.18 C 350.85 254.52 385.50 219.83 420.17 185.17 C 421.62 183.65 422.99 182.05 424.42 180.51 Z" fill="#00db82"></path>
<path d="M 550.13 180.77 C 588.16 180.78 626.19 180.74 664.22 180.78 C 630.16 215.18 595.76 249.30 561.60 283.60 C 558.01 287.32 554.13 290.35 551.39 294.83 C 550.97 294.83 550.56 294.82 550.14 294.82 C 550.13 256.80 550.14 218.78 550.13 180.77 Z" fill="#c70f14"></path>
<path d="M 664.22 180.78 C 701.34 181.31 738.50 181.40 775.60 182.08 C 737.31 220.18 699.24 258.53 660.95 296.64 C 644.97 296.26 628.97 296.47 613.00 295.83 C 592.47 295.62 571.92 295.43 551.39 294.83 C 554.13 290.35 558.01 287.32 561.60 283.60 C 595.76 249.30 630.16 215.18 664.22 180.78 Z" fill="#ff0000"></path>
<path d="M 775.60 182.08 C 775.54 220.26 775.60 258.45 775.57 296.63 C 737.37 296.64 699.16 296.63 660.95 296.64 C 699.24 258.53 737.31 220.18 775.60 182.08 Z" fill="#c70f14"></path>
<path d="M 860.72 320.32 C 861.01 337.88 860.70 355.44 860.89 373.00 C 860.93 375.60 860.70 378.18 860.37 380.75 C 850.09 371.03 840.18 360.88 830.12 350.91 C 840.26 340.66 850.35 330.33 860.72 320.32 Z" fill="#c70f14"></path>
<path d="M 225.94 323.26 C 234.74 331.88 243.55 340.54 252.16 349.34 C 246.94 354.06 242.15 359.19 237.12 364.12 C 233.44 367.69 230.25 371.52 226.06 374.54 C 225.57 368.00 225.85 361.54 225.79 355.00 C 225.82 344.42 225.68 333.84 225.94 323.26 Z" fill="#00b063"></path>
<path d="M 585.71 323.93 C 556.22 353.38 526.82 382.95 497.27 412.33 C 491.32 407.93 486.44 402.06 481.06 396.94 C 459.75 376.27 438.84 355.15 417.82 334.17 C 415.01 331.45 412.23 328.71 409.67 325.74 C 468.33 325.25 527.03 324.44 585.71 323.93 Z" fill="#00b063"></path>
<path d="M 585.71 323.93 C 617.66 323.91 649.61 323.89 681.56 323.95 C 678.79 327.05 675.97 330.07 672.95 332.95 C 651.63 354.29 630.29 375.62 608.96 396.96 C 606.12 399.70 603.32 402.44 600.87 405.54 C 625.24 405.81 649.63 405.58 674.00 405.66 C 680.74 405.78 687.19 405.20 693.89 406.24 C 642.58 454.31 591.03 502.32 539.66 550.35 C 524.70 564.25 509.84 578.28 494.83 592.13 C 494.55 576.48 494.76 560.80 494.73 545.14 C 508.88 531.04 523.00 516.92 537.08 502.77 C 554.55 502.73 572.01 502.82 589.47 502.72 C 579.29 492.84 569.31 482.77 559.15 472.86 C 548.01 462.33 537.43 451.25 526.34 440.67 C 516.44 431.45 507.22 421.48 497.27 412.33 C 526.82 382.95 556.22 353.38 585.71 323.93 Z" fill="#ff0000"></path>
<path d="M 681.56 323.95 C 712.74 324.18 744.13 324.39 775.28 324.66 C 771.44 329.00 767.14 332.95 763.09 337.10 C 740.01 360.13 717.04 383.29 693.89 406.24 C 687.19 405.20 680.74 405.78 674.00 405.66 C 649.63 405.58 625.24 405.81 600.87 405.54 C 603.32 402.44 606.12 399.70 608.96 396.96 C 630.29 375.62 651.63 354.29 672.95 332.95 C 675.97 330.07 678.79 327.05 681.56 323.95 Z" fill="#c70f14"></path>
<path d="M 312.93 325.24 C 345.17 325.32 377.43 325.72 409.67 325.74 C 412.23 328.71 415.01 331.45 417.82 334.17 C 438.84 355.15 459.75 376.27 481.06 396.94 C 486.44 402.06 491.32 407.93 497.27 412.33 C 507.22 421.48 516.44 431.45 526.34 440.67 C 537.43 451.25 548.01 462.33 559.15 472.86 C 569.31 482.77 579.29 492.84 589.47 502.72 C 572.01 502.82 554.55 502.73 537.08 502.77 C 523.39 502.76 509.69 502.73 495.99 502.80 C 494.21 502.74 492.81 502.93 491.51 501.50 C 477.39 487.61 463.16 473.86 449.23 459.76 C 425.87 437.13 403.08 413.93 379.68 391.33 C 369.48 381.18 359.35 370.97 349.02 360.95 C 336.86 349.18 325.05 337.05 312.93 325.24 Z" fill="#00db82"></path>
<path d="M 539.66 550.35 C 554.93 550.36 570.20 550.25 585.47 550.41 C 580.91 555.24 575.89 559.53 571.08 564.10 C 560.92 573.89 550.30 583.23 540.30 593.19 C 557.08 593.38 573.86 593.20 590.64 593.29 C 574.69 609.26 559.16 625.61 543.13 641.51 C 527.15 657.92 511.03 674.26 494.78 690.41 C 494.55 673.27 494.34 656.11 494.21 638.98 C 493.69 636.19 497.71 634.21 499.32 632.33 C 512.63 619.22 526.46 606.64 539.58 593.35 C 524.66 592.74 509.73 592.80 494.83 592.13 C 509.84 578.28 524.70 564.25 539.66 550.35 Z" fill="#00db82"></path>
<path d="M 596.52 646.61 C 596.85 663.35 596.82 680.12 596.86 696.87 C 583.84 709.83 570.93 722.90 557.86 735.80 C 541.13 735.71 524.39 735.87 507.65 735.72 C 519.61 723.24 532.07 711.21 544.22 698.92 C 561.63 681.45 579.14 664.10 596.52 646.61 Z" fill="#00db82"></path>
</svg>